<?xml version="1.0" encoding="utf-8"?>
<!-- Generator: Adobe Illustrator 21.0.0, SVG Export Plug-In . SVG Version: 6.00 Build 0)  -->
<svg version="1.1" id="Layer_1" xmlns="http://www.w3.org/2000/svg" xmlns:xlink="http://www.w3.org/1999/xlink" x="0px" y="0px"
	 viewBox="0 0 516.9 39.8" style="enable-background:new 0 0 516.9 39.8;" xml:space="preserve">
<style type="text/css">
	.st0{fill:#FFFFFF;}
</style>
<g>
	<path class="st0" d="M119.9,22.4c1.7,2.9,3.4,5.7,5.1,8.5c1.7,2.8,3.4,5.7,5.2,8.6c-0.2,0-0.4,0.1-0.5,0.1s-0.3,0-0.4,0h-5.7
		c-0.7,0-1.2-0.2-1.5-0.8c-1.4-2.4-2.9-4.8-4.4-7.2c-1.5-2.4-2.9-4.8-4.4-7.2c-0.2-0.3-0.4-0.5-0.6-0.8c-0.2-0.2-0.4-0.5-0.6-0.8
		c-0.1-0.2-0.3-0.3-0.5-0.3c-0.2,0-0.4-0.1-0.7-0.1c-0.2,0-0.5,0-0.8-0.1v0.9c-0.2,0-0.4,0.1-0.5,0.1c-0.2,0-0.3,0-0.6,0.1v4.3
		c-0.2,0.1-0.5,0.1-0.7,0.2c-0.2,0-0.4,0.2-0.4,0.6c0,0.3,0.1,0.4,0.4,0.4c0.2,0,0.5,0,0.7,0.1v10.5h-6.3V27.4
		c0.5-0.1,1.1-0.1,1.6,0c0.5,0.1,1,0.2,1.5,0.5c0.5,0.2,0.9,0.1,1.2-0.4c0.4-0.6,0.8-1.1,1.4-1.4c0.3-0.2,0.5-0.4,0.5-0.6
		c0-0.2-0.2-0.5-0.5-0.7c-0.6-0.3-1-0.9-1-1.6c-0.1-0.9-0.7-1.5-1.7-1.6c-0.6-0.1-1.1-0.4-1.4-0.9c-0.3,0.2-0.5,0.4-0.7,0.5
		c-0.2,0.2-0.5,0.2-0.9,0.1c0-0.7,0-1.5,0-2.2c0-0.7,0-1.5,0-2.3c0.2,0,0.4-0.1,0.5-0.1c0.1,0,0.3,0,0.4,0c1.1,0,2.3,0,3.4,0
		c1.1,0,2.3,0,3.4,0c1.1,0,2.3,0,3.4,0c1.1,0,2.3-0.1,3.4-0.1c1.3-0.1,2.2-0.4,2.7-1c0.6-0.6,0.9-1.4,1.1-2.5
		c0.1-0.4,0.2-0.8,0.2-1.1c0.1-0.4,0.1-0.7,0-1c-0.1-0.5-0.3-0.9-0.5-1.3c-0.2-0.4-0.5-0.8-0.7-1.3c-0.5-0.7-1.2-1.1-2.2-1.1
		l-4.4-0.2h-9.8h-0.6c0-0.2-0.1-0.6-0.1-1.2c0-0.6-0.1-1.3-0.1-2c0-0.7,0-1.4,0-2.1c0-0.7,0-1.2,0.1-1.5c0.2,0,0.3,0,0.4,0
		c0.1,0,0.3,0,0.4,0c2.1,0,4.1,0,6.2,0c2.1,0,4.1,0,6.2,0c0.8,0,1.5,0.1,2.3,0.1c0.7,0.1,1.5,0.1,2.3,0.3c2.4,0.3,4.2,1.6,5.5,3.9
		c0.7,1.2,1.1,2.5,1.4,3.8c0.2,1.3,0.3,2.7,0.3,4.1c-0.1,0.7-0.2,1.4-0.3,2.2c-0.1,0.7-0.3,1.4-0.6,2.1c-0.6,1.3-1.3,2.4-2.3,3.3
		c-1,0.9-2.1,1.5-3.5,1.9C120.7,22.2,120.3,22.3,119.9,22.4z M104.1,18.6c-0.1,0.2-0.1,0.3-0.2,0.4c-0.1,0.1-0.1,0.2,0,0.3
		c0.1,0.1,0.2,0.2,0.2,0.3c0.1,0.1,0.2,0.1,0.2,0.2c0.2-0.2,0.3-0.3,0.3-0.5c0-0.1-0.1-0.2-0.2-0.3
		C104.3,18.9,104.2,18.8,104.1,18.6z M104.9,39.5c0.1,0,0.1,0,0.2,0c0,0,0.1,0,0.2,0v-0.6c-0.1,0-0.2,0.1-0.3,0.1h-0.1
		c0,0.1,0,0.2,0,0.3C104.9,39.3,104.9,39.4,104.9,39.5z M106.5,30.8c0-0.1,0-0.1,0.1-0.2c0,0,0-0.1,0-0.2c0-0.1-0.1-0.1-0.1-0.2
		c0,0-0.1-0.1-0.1-0.2c-0.1-0.1-0.2-0.1-0.2,0.1c0,0.2,0,0.3,0.1,0.5c0,0,0.1,0.1,0.1,0.1C106.4,30.7,106.5,30.7,106.5,30.8
		c0.2,0,0.3,0,0.4,0.1c0.1,0.1,0.3,0,0.4-0.2c-0.2-0.2-0.3-0.2-0.5-0.1C106.8,30.6,106.7,30.7,106.5,30.8z M109.1,32
		c-0.1-0.1-0.2-0.2-0.3-0.3c-0.1-0.1-0.2-0.1-0.2-0.1c-0.1,0-0.2,0.1-0.2,0.1c-0.1,0.1-0.2,0.1-0.2,0.2c0.1,0.1,0.1,0.2,0.2,0.3
		c0.1,0.1,0.1,0.1,0.2,0.1c0.1,0,0.2,0,0.2-0.1C108.8,32.1,109,32.1,109.1,32z M108.7,29.3c-0.1,0-0.2,0-0.2-0.1
		c0,0.1-0.1,0.1-0.1,0.2c0,0.1-0.1,0.1-0.1,0.2c0,0.1,0,0.1,0.1,0.1c0.1,0,0.1,0.1,0.1,0.1c0.2-0.1,0.2-0.2,0.3-0.2
		c0-0.1,0-0.1-0.1-0.2C108.7,29.4,108.7,29.4,108.7,29.3z M120.6,27.6c0.2,0.6,0.4,0.8,0.7,0.6c0.1,0,0.1-0.1,0.1-0.2
		c0-0.1,0-0.2,0.1-0.3c-0.1,0-0.2-0.1-0.4-0.1C120.9,27.7,120.8,27.6,120.6,27.6z M125.4,16.6c-0.1-0.1-0.1-0.1-0.1-0.2
		c0-0.1-0.1-0.1-0.1-0.2c0,0-0.1,0-0.2,0c-0.1,0-0.1,0-0.1,0.1c0,0.2,0,0.3,0.1,0.3C124.9,16.7,125.1,16.7,125.4,16.6z"/>
	<path class="st0" d="M144,39.7c-0.4-0.1-0.7-0.1-1-0.2c-0.3-0.1-0.6-0.1-0.8-0.3c-0.5-0.2-1.1-0.4-1.6-0.4c-0.5,0-1.1,0.2-1.6,0.7
		c-0.1-0.1-0.2-0.2-0.2-0.3c-0.1-0.1-0.2-0.2-0.2-0.3c-0.3-0.4-0.6-0.7-0.8-0.7c-0.2-0.1-0.6,0-1,0.3c-0.3,0.2-0.5,0.3-0.7,0.3
		c-0.2,0.1-0.5,0.1-0.8,0c-0.1,0-0.3,0.1-0.5,0.2c-0.3,0.2-0.5,0.3-0.7,0.4c-0.2,0.1-0.5,0-0.8,0c-0.1-0.3-0.1-0.7-0.1-1.1
		c0-0.4,0-0.8,0-1.3c0-0.4,0-0.8,0.1-1.2c0-0.4,0.1-0.7,0.1-0.9c0.2,0.1,0.4,0.1,0.5,0.2c0.2,0,0.4,0.1,0.5,0.2
		c0.9,0.3,1.7,0.2,2.3-0.6c0.2-0.3,0.4-0.5,0.6-0.7c0.1-0.1,0.3-0.2,0.6-0.3l-0.1-0.2c-0.4,0-0.8,0-1.2,0s-0.8,0-1.2,0.1
		c-0.2,0-0.4,0.1-0.5,0.2c-0.1,0.1-0.3,0.2-0.5,0.2c-0.2,0.1-0.3,0.1-0.4,0.2c-0.1,0.1-0.3,0.1-0.5,0.1c0,0-0.2-0.1-0.5-0.4
		c0.6-0.2,1.1-0.5,1.4-1c0.1-0.1,0.2-0.2,0.5-0.2c0.2,0,0.4-0.1,0.6-0.1h12h1.6c0.2,0,0.3,0,0.5,0c0.2,0,0.2,0.1,0.3,0.4
		c0,0,0.1,0.1,0.2,0.1h0.2c0.2-0.3,0.4-0.5,0.7-0.5c0.3,0,0.6,0,0.8,0h1.9v6.8h-8.7c0.1-0.4,0.2-0.8,0.3-1.1
		c0.1-0.3,0.2-0.8,0.4-1.3c-0.2,0.1-0.4,0.2-0.5,0.3c-0.1,0.1-0.2,0.1-0.3,0.2c-0.2,0.1-0.3,0.2-0.4,0.4c-0.1,0.1-0.2,0.3-0.4,0.4
		c-0.2,0.2-0.3,0.3-0.3,0.4c0,0.1,0.1,0.2,0.4,0.3v0.2C143.9,39.4,144,39.6,144,39.7z M133,19.7v-2.6h20.5v6.8h-6.7h-6.9
		c-1.1,0-2.2,0-3.4,0c-1.1,0-2.3,0-3.4-0.1c0-0.2-0.1-0.4-0.1-0.7c0-0.2,0-0.4-0.1-0.7c0.5-0.5,0.9-1.1,1.3-1.7
		c-0.1,0-0.2-0.1-0.2-0.3c0-0.2,0-0.3-0.1-0.5c-0.1-0.2-0.2-0.3-0.3-0.4C133.6,19.6,133.3,19.6,133,19.7z M153.5,0.5v6.7h-20.4V0.5
		L153.5,0.5z M139.6,37.7h1C140.2,37.4,139.9,37.4,139.6,37.7z M142.3,19.4c0-0.1,0.1-0.1,0.1-0.2c0-0.1,0.1-0.1,0.1-0.2
		c-0.1-0.1-0.2-0.2-0.2-0.1c-0.1,0-0.1,0.1-0.1,0.1c0,0.1-0.1,0.1-0.1,0.2l0.1,0.1C142.2,19.4,142.3,19.4,142.3,19.4z M143.5,21.8
		c0.2-0.2,0.3-0.3,0.3-0.3c0-0.1-0.1-0.2-0.3-0.3c0,0-0.1,0-0.1,0.1l-0.1,0.1C143.3,21.4,143.4,21.6,143.5,21.8z M147.9,22.1
		c-0.4,0-0.7,0.1-0.7,0.1c-0.1,0.1-0.2,0.2-0.2,0.5C147.5,22.9,147.8,22.7,147.9,22.1z"/>
	<path class="st0" d="M154.5,0.8h6.3c0.1,0.3,0.1,0.5,0.1,0.7v10.7c0,0.1,0,0.2,0,0.3c0,0.1,0,0.2-0.1,0.3c-0.5,0.3-0.6,0.5-0.5,0.7
		c0.1,0.2,0.3,0.5,0.5,0.7c0.1,0.2,0.1,0.4,0,0.6c-0.1,0.3-0.3,0.5-0.6,0.6c-0.1,0.1-0.2,0.1-0.3,0.1c-0.1,0-0.2,0-0.3,0.1
		c-0.4,0.2-0.7,0.3-0.8,0.4c-0.1,0.1-0.1,0.4-0.1,0.8c0,0.5-0.1,0.9-0.3,1.2c-0.3,0.3-0.5,0.7-0.3,1.1c0.1,0.3,0.2,0.6,0.2,1
		c0,0.4,0.2,0.6,0.6,0.8c0.1,0.1,0.2,0.2,0.3,0.3c0.1,0.1,0.2,0.2,0.3,0.3h1.4v11.1h15v6.8h-21.4c0-0.2,0-0.4,0-0.5
		c0-0.2,0-0.4,0-0.5c0-2.2,0-4.3,0-6.5c0-2.2,0-4.3,0-6.5c0-0.3,0-0.5,0-0.7c0-0.2,0-0.5,0-0.7c0-0.1,0-0.2,0.1-0.3
		c0.1-0.1,0.1-0.2,0.2-0.3c0,0,0-0.1-0.1-0.2c-0.1-0.1-0.1-0.2-0.2-0.2c0-0.1,0-0.2,0-0.3c0-0.1,0-0.2,0-0.3V1.7V0.8z M154.9,22.5
		c0.3,0.1,0.6,0.1,0.7,0.1c0.1,0,0.3-0.2,0.5-0.5c-0.2-0.1-0.3-0.2-0.4-0.3c-0.1-0.1-0.3-0.2-0.5-0.3c-0.1,0.2-0.1,0.4-0.2,0.6
		C155,22.2,155,22.4,154.9,22.5z M156.1,25c-0.2,0.2-0.2,0.4-0.2,0.5c0,0.1,0,0.1,0.1,0.1c0.1,0,0.2,0,0.2,0.1
		c0-0.1,0.1-0.1,0.1-0.2c0-0.1,0.1-0.1,0.1-0.2C156.5,25.3,156.4,25.2,156.1,25z M156.2,14.4l-0.1,0.2c0.1,0,0.2,0.1,0.3,0.1
		c0.1,0,0.2,0.1,0.3,0.1l0.1-0.1L156.2,14.4z M157.4,31.8c-0.2-0.1-0.3-0.2-0.5-0.3c-0.1-0.1-0.2-0.1-0.3-0.1c-0.1,0-0.2,0-0.3,0.1
		c-0.1,0.1-0.2,0.2-0.3,0.3c0.1,0.1,0.2,0.2,0.3,0.3c0.1,0.1,0.2,0.2,0.3,0.2c0.1,0,0.2,0,0.3-0.1C157.1,32,157.3,31.9,157.4,31.8z
		 M157.7,21.3c-0.4-0.1-0.7-0.1-0.7,0c-0.1,0.1-0.2,0.3-0.3,0.7c0.4,0.1,0.7,0.1,0.7,0C157.4,21.9,157.5,21.7,157.7,21.3z
		 M158.2,25.8c-0.1-0.1-0.2-0.1-0.3-0.2c-0.1-0.1-0.2-0.1-0.2,0c0,0-0.2,0.1-0.3,0.3c0.1,0.1,0.1,0.1,0.2,0.2s0.1,0.1,0.2,0.1
		c0.1,0,0.1,0,0.2-0.1C158,25.9,158.1,25.9,158.2,25.8z M158.7,23.4c-0.5-0.3-0.8-0.3-0.9,0.2c0,0,0,0.1,0.1,0.1l0.1,0.1
		c0.1-0.1,0.2-0.1,0.3-0.2C158.5,23.5,158.6,23.5,158.7,23.4z M159,11.3l-0.2-0.3c0,0-0.1,0.1-0.1,0.1c-0.1,0-0.1,0-0.1,0.1
		c0,0,0,0.2,0.1,0.3c0.1,0,0.1-0.1,0.1-0.1C158.9,11.4,159,11.3,159,11.3z M160.4,2.2c-0.1-0.1-0.2-0.1-0.2-0.2
		C160.1,2,160,1.9,160,1.9L159.8,2c0,0-0.1,0.1-0.1,0.1c0,0,0,0.1-0.1,0.1c0,0.2,0.2,0.3,0.3,0.3c0,0,0.1,0,0.1-0.1L160.4,2.2z
		 M162,33.4c-0.1-0.1-0.2-0.2-0.3-0.2c-0.1-0.1-0.1-0.1-0.2-0.1c0,0-0.1,0-0.2,0c-0.1,0.1-0.1,0.1-0.1,0.1c0.1,0.2,0.2,0.4,0.2,0.4
		c0.1,0,0.2,0,0.2,0C161.8,33.5,161.9,33.4,162,33.4z M167.2,34.8c-0.1-0.5-0.4-0.7-0.9-0.7c-0.5,0.1-0.6,0.3-0.6,0.7
		c0.1,0.5,0.3,0.6,0.7,0.6C167,35.3,167.2,35.1,167.2,34.8z"/>
	<path class="st0" d="M186.1,23.4c0,0.1,0.1,0.2,0.1,0.2c0,0.1,0.1,0.2,0.1,0.2c0.1,0.5,0.2,0.9,0.3,1c0.1,0.1,0.5,0.1,1,0.1
		c0,0,0.2,0,0.4-0.1c0,0.2,0,0.3,0,0.4c0,0.1,0,0.3,0.1,0.5c-0.3-0.2-0.6-0.3-0.8-0.4c-0.2-0.1-0.5-0.1-0.8,0.1
		c-0.2,0.2-0.3,0.4-0.3,0.6s0,0.5,0.1,0.7c-0.3,0.2-0.6,0.3-0.9,0.1c-0.3-0.2-0.6-0.1-1,0.1c0.4,0.5,0.8,0.8,1.2,0.7
		c0.4-0.1,0.9,0,1.4,0c-0.1-0.2-0.1-0.3-0.2-0.3c0-0.1-0.1-0.1-0.1-0.2c0.2,0.1,0.4,0.1,0.5,0.2c0.2,0,0.3,0.1,0.5,0.2
		c-1.1,4.1-2.3,8.2-3.4,12.1h-6.8c2-6.6,4-13.1,6-19.6c2-6.5,3.9-13,5.9-19.6h6.7c2.1,6.6,4.1,13.1,6.1,19.6c2,6.5,4,13,6.1,19.6
		c-1.2,0.1-2.4,0.1-3.6,0.1c-1.2,0-2.3,0-3.5,0h-7h-7.3c0.3-1.1,0.5-2.2,0.8-3.2c0.3-1,0.6-2.1,0.8-3.2h10.9
		c-1.1-3.8-2.2-7.6-3.3-11.3c-1.1-3.7-2.2-7.5-3.3-11.3h-0.2c-0.6,2.2-1.3,4.4-1.9,6.6c-0.6,2.2-1.2,4.4-1.9,6.6
		c-0.3,0.1-0.5,0.2-0.7,0.2c-0.2,0.1-0.5,0.2-0.7,0.2c-0.2-0.2-0.4-0.4-0.5-0.5c-0.2-0.2-0.1-0.5,0.2-0.9c-0.1,0-0.1,0.1-0.2,0.1
		c0,0-0.1,0-0.2,0.1c-0.1,0.1-0.1,0.2-0.2,0.3C186.2,23.2,186.1,23.3,186.1,23.4c-0.1,0.1-0.1,0-0.2,0c-0.1,0-0.1,0-0.2,0
		c-0.3,0.1-0.5,0.2-0.7,0.4c-0.2,0.2-0.5,0.3-0.9,0.2c-0.2,0-0.3,0.1-0.3,0.3c0,0.2,0,0.4,0.2,0.5c0.3,0.1,0.5,0.3,0.5,0.6
		c0,0.2,0,0.4,0,0.5c0,0.1,0,0.3,0,0.5c0.8,0,1.3-0.3,1.3-0.9c0-0.3,0-0.5-0.2-0.7c-0.2-0.2-0.6-0.3-1.2-0.4c0.2,0,0.5-0.1,0.8-0.1
		C185.8,24.3,186.1,24,186.1,23.4z M194.6,5.1c-0.2-0.2-0.3-0.3-0.3-0.3c0,0-0.1,0-0.1,0C194.1,4.9,194,4.9,194,5c0,0,0,0,0,0.1
		c0,0.1,0.1,0.1,0.1,0.1c0.1,0,0.1,0,0.2-0.1C194.4,5.2,194.5,5.1,194.6,5.1z"/>
	<path class="st0" d="M225.6,39.6h-6.4c0.1-0.6,0.1-1.1,0-1.7c-0.1-0.6,0-1.1,0.4-1.6V36c-0.3-0.2-0.4-0.4-0.4-0.7
		c0-0.2,0.1-0.5,0.1-0.8V8.7V7.2c-0.8-0.1-1.5-0.1-2.2-0.1c-0.7,0-1.5,0-2.2,0h-4.4V0.4h24.1l0.1,6.8h-8.8V39.6z M220.4,27.7
		c-0.2-0.1-0.2-0.1-0.3-0.1c0,0.1-0.1,0.2-0.1,0.2c0,0.1-0.1,0.2-0.1,0.2l0.2,0.2L220.4,27.7z M223.2,33c0.2-0.2,0.3-0.3,0.3-0.3
		c0,0,0-0.1-0.1-0.1c-0.1,0-0.1-0.1-0.1-0.1c0,0.1-0.1,0.1-0.1,0.1c0,0-0.1,0.1-0.1,0.1c0,0,0,0.1,0.1,0.1
		C223.1,32.8,223.1,32.9,223.2,33z M224.8,34.8c-0.2-0.2-0.3-0.2-0.3-0.2c0,0-0.1,0.1-0.3,0.2c0.1,0.1,0.1,0.1,0.2,0.1
		c0,0,0.1,0.1,0.2,0.1C224.6,35.1,224.7,35,224.8,34.8z"/>
	<path class="st0" d="M237.4,0.4h6.1l0.1,39.2h-6.2V0.4z M238.7,25.5c0.4,0.3,0.7,0.3,1,0.1c0.1-0.1,0.1-0.2,0-0.3
		C239.3,24.9,239,25,238.7,25.5z M241.9,37.7c0.1,0.2,0.2,0.4,0.2,0.7c0.1,0,0.1-0.1,0.2-0.1c0.1,0,0.1,0,0.1-0.1
		C242.5,37.9,242.4,37.7,241.9,37.7z"/>
	<path class="st0" d="M266.2,34.4c-0.1-0.2-0.2-0.3-0.3-0.4c-0.1-0.1-0.2-0.2-0.2-0.3c-0.1-0.1-0.1-0.2-0.1-0.3
		c0-0.1-0.1-0.2-0.1-0.3c-0.1-0.2-0.3-0.3-0.5-0.3c-0.2,0-0.4,0-0.5,0.1c-0.3,0.3-0.2,0.6,0.2,1c0.1,0.1,0.2,0.1,0.2,0.1
		c0.1,0,0.2,0.1,0.2,0.1c0.1,0.1,0.1,0.1,0.2,0.2s0.2,0.1,0.3,0.2c-0.6,0.2-1.1,0.4-1.7,0.7c-0.5,0.2-1.1,0.4-1.6,0.6
		c0.1,0.1,0.1,0.1,0.2,0.1c0,0,0.1,0,0.1,0.1c0.2,0.1,0.4,0.2,0.7,0.2c0.3,0.1,0.4,0.3,0.3,0.6c0,0.2-0.1,0.4-0.3,0.7
		c-0.1,0.2-0.3,0.4-0.5,0.6c-0.3,0.3-0.4,0.5-0.4,0.6c0,0.2,0.2,0.4,0.6,0.7c-0.9,0.1-1.7,0.1-2.5,0.1c-0.8,0-1.6,0-2.5,0
		c-0.2-0.7-0.4-1.4-0.6-2.1c-0.2-0.7-0.4-1.4-0.6-2.2c-0.2-0.7-0.4-1.4-0.6-2.1c-0.2-0.7-0.4-1.4-0.5-2.2c-0.1-0.8-0.3-1.5-0.6-2.2
		s-0.5-1.4-0.7-2.1c-0.2-0.8-0.4-1.5-0.6-2.2c-0.2-0.7-0.4-1.4-0.6-2.2c-0.2-0.7-0.4-1.4-0.6-2.2c-0.2-0.7-0.4-1.4-0.6-2.2
		c-0.2-0.8-0.4-1.5-0.6-2.2c-0.2-0.7-0.4-1.4-0.6-2.1c-0.2-0.8-0.4-1.5-0.6-2.3c-0.2-0.7-0.4-1.5-0.6-2.3l-1.2-4.3
		c-0.2-0.7-0.4-1.4-0.6-2.2c-0.2-0.7-0.4-1.5-0.6-2.2h6.9c1.3,4.7,2.5,9.3,3.7,13.9c1.2,4.6,2.5,9.3,3.7,14h0.2
		c0.1-0.4,0.2-0.8,0.3-1.2c0.1-0.4,0.2-0.7,0.3-1.1c0.2-0.6,0.4-1.3,0.5-1.9c0.1-0.6,0.3-1.2,0.4-1.8c0.1-0.4,0.2-0.7,0.3-1.1
		c0.1-0.3,0.2-0.7,0.3-1.1c0-0.4,0.1-0.8,0.3-1.1c0.1-0.4,0.2-0.8,0.3-1.2c0.1-0.3,0.2-0.7,0.3-1.1c0.1-0.4,0.2-0.7,0.3-1.1l0.5-2.2
		c0.1-0.3,0.2-0.7,0.3-1.1c0.1-0.4,0.2-0.7,0.3-1.1c0.1-0.4,0.2-0.8,0.3-1.1c0.1-0.4,0.2-0.8,0.3-1.1c0.1-0.4,0.2-0.8,0.3-1.1
		c0.1-0.4,0.2-0.7,0.3-1.1c0.3-0.9,0.5-1.9,0.7-2.9c0.2-0.9,0.5-1.9,0.7-2.9c0-0.2,0.1-0.5,0.3-0.9h5.4c0,0.1,0.1,0.2,0.1,0.2
		c0,0.1,0.1,0.2,0.1,0.2c0.2-0.1,0.3-0.2,0.5-0.3c0.2-0.1,0.4-0.3,0.6-0.5c0,0.3-0.1,0.5-0.1,0.6c0,0.2,0,0.3-0.1,0.5
		c-1,3.7-2,7.3-3,11c-1,3.6-2.1,7.3-3.1,11c-0.3,1.2-0.7,2.4-1,3.6c-0.3,1.2-0.6,2.4-1,3.6c-0.2,0.6-0.4,1.3-0.5,1.9
		C266.7,33,266.5,33.7,266.2,34.4z M250.6,5.2c0,0-0.1-0.1-0.1-0.1c0,0,0-0.1-0.1-0.1c-0.1,0-0.1,0-0.2-0.1c0,0-0.1-0.1-0.2-0.1
		c0,0-0.1,0.1-0.1,0.1c0,0,0,0.1-0.1,0.1c0.1,0,0.1,0.1,0.2,0.1c0,0,0.1,0.1,0.2,0.1c0,0,0.1,0,0.1,0C250.5,5.2,250.6,5.2,250.6,5.2
		z M253.2,3.5c0.3-0.3,0.5-0.5,0.6-0.6c0.1-0.1,0.1-0.4,0-0.8c-0.3,0.2-0.5,0.4-0.6,0.5C253.2,2.7,253.2,3,253.2,3.5z M255.9,15.1
		c0,0,0-0.1,0-0.1c0,0,0-0.1,0-0.1c-0.2,0-0.3,0-0.4-0.1c-0.1-0.1-0.2-0.2-0.3-0.3c-0.1-0.1-0.2-0.1-0.3-0.2c-0.1,0-0.2,0-0.4,0.1
		c-0.5,0.4-0.5,0.8-0.2,1.3c0.3-0.1,0.5-0.2,0.8-0.3C255.4,15.3,255.7,15.2,255.9,15.1z M261.4,37.2c-0.2,0.2-0.2,0.4-0.2,0.4
		c0,0.1,0.1,0.2,0.3,0.2c0.2,0,0.2-0.1,0.2-0.3c0,0-0.1-0.1-0.1-0.1C261.6,37.4,261.5,37.3,261.4,37.2z M261.9,28.9
		c0,0.5,0.1,0.9,0.2,1c0.1,0.1,0.3,0.2,0.7,0.3C262.8,29.6,262.5,29.1,261.9,28.9z M262.8,32c0-0.1,0.1-0.1,0.1-0.1
		c0,0,0-0.1,0.1-0.1c-0.1,0-0.2-0.1-0.2-0.1c-0.1,0-0.2,0-0.2-0.1l-0.1,0.1c0.1,0.1,0.1,0.1,0.2,0.2C262.7,31.9,262.8,32,262.8,32z
		 M263.8,30.6c-0.5-0.3-0.9-0.2-1.1,0.3c0,0.1,0,0.2,0,0.3c0.1,0.1,0.1,0.1,0.1,0.1C263.4,31.4,263.7,31.1,263.8,30.6z M263.8,34.6
		c0.4-0.2,0.4-0.5,0.1-0.8c-0.1-0.2-0.2-0.3-0.4-0.4c-0.2-0.1-0.3-0.1-0.6,0.1C263,34,263.3,34.4,263.8,34.6z M264.4,39.5
		c-0.2,0-0.3,0.1-0.4,0.1c-0.1,0-0.3,0-0.4,0v-0.2c0.1-0.1,0.2-0.1,0.4-0.2C264.1,39.1,264.2,39.2,264.4,39.5z M266.2,18
		c-0.3,0.1-0.6,0.2-0.8,0.2c-0.2,0.1-0.3,0.3-0.3,0.7c0.5,0.1,0.8,0.1,0.9,0C266.1,18.8,266.2,18.5,266.2,18z M265.3,25.9h0.3v-0.5
		c0,0-0.1-0.1-0.3-0.1V25.9z M266,24.6c-0.1,0-0.1-0.1-0.1-0.1c0,0-0.1-0.1-0.1-0.1c0,0-0.1,0-0.1,0.1c0,0-0.1,0.1-0.1,0.1
		c0,0.1,0.1,0.2,0.2,0.3C265.8,24.9,265.9,24.8,266,24.6z M273.7,5.1c0.1-0.1,0.1-0.2,0.2-0.2c0,0,0.1-0.1,0.1-0.2
		c0,0-0.1-0.1-0.1-0.1c0,0-0.1-0.1-0.1-0.1c-0.1,0-0.1,0.1-0.2,0.1s-0.1,0-0.1,0.1C273.6,4.7,273.6,4.9,273.7,5.1z"/>
	<path class="st0" d="M289.2,39.7c-0.4-0.1-0.7-0.1-1-0.2s-0.6-0.1-0.8-0.3c-0.5-0.2-1.1-0.4-1.6-0.4c-0.5,0-1.1,0.2-1.6,0.7
		c-0.1-0.1-0.2-0.2-0.2-0.3c-0.1-0.1-0.2-0.2-0.2-0.3c-0.3-0.4-0.6-0.7-0.8-0.7c-0.2-0.1-0.6,0-1,0.3c-0.3,0.2-0.5,0.3-0.7,0.3
		c-0.2,0.1-0.5,0.1-0.8,0c-0.1,0-0.3,0.1-0.5,0.2c-0.3,0.2-0.5,0.3-0.7,0.4c-0.2,0.1-0.5,0-0.8,0c-0.1-0.3-0.1-0.7-0.1-1.1
		c0-0.4,0-0.8,0-1.3c0-0.4,0-0.8,0.1-1.2c0-0.4,0.1-0.7,0.1-0.9c0.2,0.1,0.4,0.1,0.5,0.2c0.2,0,0.4,0.1,0.5,0.2
		c0.9,0.3,1.7,0.2,2.3-0.6c0.2-0.3,0.4-0.5,0.6-0.7c0.1-0.1,0.3-0.2,0.6-0.3l-0.1-0.2c-0.4,0-0.8,0-1.2,0c-0.4,0-0.8,0-1.2,0.1
		c-0.2,0-0.4,0.1-0.5,0.2c-0.1,0.1-0.3,0.2-0.5,0.2c-0.2,0.1-0.3,0.1-0.4,0.2s-0.3,0.1-0.5,0.1c0,0-0.2-0.1-0.5-0.4
		c0.6-0.2,1.1-0.5,1.4-1c0.1-0.1,0.2-0.2,0.5-0.2c0.2,0,0.4-0.1,0.6-0.1h12h1.6c0.2,0,0.3,0,0.5,0c0.2,0,0.2,0.1,0.3,0.4
		c0,0,0.1,0.1,0.2,0.1h0.2c0.2-0.3,0.4-0.5,0.7-0.5s0.6,0,0.8,0h1.9v6.8h-8.7c0.1-0.4,0.2-0.8,0.3-1.1c0.1-0.3,0.2-0.8,0.4-1.3
		c-0.2,0.1-0.4,0.2-0.5,0.3c-0.1,0.1-0.2,0.1-0.3,0.2c-0.2,0.1-0.3,0.2-0.4,0.4c-0.1,0.1-0.2,0.3-0.4,0.4c-0.2,0.2-0.3,0.3-0.3,0.4
		c0,0.1,0.1,0.2,0.4,0.3v0.2C289.1,39.4,289.1,39.6,289.2,39.7z M278.2,19.7v-2.6h20.5v6.8h-6.7H285c-1.1,0-2.2,0-3.4,0
		c-1.1,0-2.3,0-3.4-0.1c0-0.2-0.1-0.4-0.1-0.7c0-0.2,0-0.4-0.1-0.7c0.5-0.5,0.9-1.1,1.3-1.7c-0.1,0-0.2-0.1-0.2-0.3
		c0-0.2,0-0.3-0.1-0.5s-0.2-0.3-0.3-0.4C278.7,19.6,278.5,19.6,278.2,19.7z M298.6,0.5v6.7h-20.4V0.5L298.6,0.5z M284.8,37.7h1
		C285.4,37.4,285,37.4,284.8,37.7z M287.5,19.4c0-0.1,0.1-0.1,0.1-0.2c0-0.1,0.1-0.1,0.1-0.2c-0.1-0.1-0.2-0.2-0.2-0.1
		c-0.1,0-0.1,0.1-0.1,0.1c0,0.1-0.1,0.1-0.1,0.2l0.1,0.1C287.4,19.4,287.4,19.4,287.5,19.4z M288.7,21.8c0.2-0.2,0.3-0.3,0.3-0.3
		c0-0.1-0.1-0.2-0.3-0.3c0,0-0.1,0-0.1,0.1l-0.1,0.1C288.5,21.4,288.6,21.6,288.7,21.8z M293.1,22.1c-0.4,0-0.7,0.1-0.7,0.1
		c-0.1,0.1-0.2,0.2-0.2,0.5C292.6,22.9,293,22.7,293.1,22.1z"/>
</g>
<g>
	<path class="st0" d="M326.8,11.3v27.9h-5.9V0h9.3c0.9,4.2,1.7,8.4,2.6,12.6c0.9,4.2,1.7,8.4,2.6,12.7c0.4-1.4,0.8-2.7,1.1-4.1
		c0.3-1.4,0.6-2.8,0.9-4.2c0.3-1.4,0.6-2.8,0.9-4.2c0.3-1.4,0.6-2.8,0.9-4.2c0.3-1.4,0.6-2.8,0.9-4.2c0.3-1.4,0.6-2.8,0.9-4.3h9.3
		c0,0.2,0.1,0.4,0.1,0.5c0,0.2,0,0.4,0,0.5v30.8c0,0.3,0,0.5,0,0.8c0,0.2-0.2,0.4-0.7,0.6c0.4,0.3,0.6,0.6,0.7,0.9
		c0,0.3,0,0.7,0,1.1v3.8h-1.6c-0.1-0.1-0.2-0.2-0.1-0.5c0-0.3-0.1-0.4-0.5-0.3c-0.3,0-0.5,0.1-0.6,0.3c-0.1,0.2-0.1,0.4-0.2,0.6h-3
		V11.4H344c-0.9,4.6-1.8,9.3-2.7,13.9c-0.9,4.6-1.8,9.2-2.7,13.9h-6.2L327,11.3H326.8z M324.6,21c-0.3,0.2-0.4,0.5-0.2,0.7
		c0.1,0.1,0.2,0.1,0.3,0.1C324.9,21.6,324.9,21.3,324.6,21z M330.2,2.3c-0.3-0.3-0.4-0.5-0.5-0.5c-0.4-0.1-0.6,0-0.7,0.4
		c0,0.1,0,0.2,0,0.3c0.1,0.1,0.1,0.2,0.1,0.1c0.2,0,0.3-0.1,0.5-0.1C329.8,2.5,330,2.4,330.2,2.3z M334.7,32.9c-0.4-0.5-1-0.8-1.7-1
		s-1.3-0.1-2,0.2c0.7,0.1,1.3,0.2,1.9,0.5C333.4,32.9,334,33,334.7,32.9z M332.1,18.8c0.1,0.3,0.2,0.6,0.3,0.6
		c0.1,0.1,0.3,0.1,0.5,0c0,0,0.1-0.1,0.1-0.2c0-0.1,0-0.2,0.1-0.3c-0.2,0-0.3-0.1-0.4-0.1C332.5,18.9,332.3,18.8,332.1,18.8z
		 M334.1,38.8c0.2-0.3,0.2-0.5,0.2-0.5c-0.1-0.2-0.2-0.3-0.3-0.3c0,0-0.1,0-0.2,0.1c-0.1,0.1-0.1,0.1-0.1,0.2
		C333.7,38.3,333.8,38.5,334.1,38.8z M343,4.3c0.3-0.4,0.4-0.6,0.4-0.6c-0.1-0.2-0.2-0.2-0.3-0.2c-0.2,0-0.3,0.1-0.3,0.3
		c0,0.1,0,0.2,0.1,0.2C342.9,4,342.9,4.1,343,4.3z M346.4,29.9c0-0.5-0.2-0.6-0.6-0.5c0,0-0.1,0-0.1,0.1c0,0.1,0,0.2,0,0.2
		C345.8,30.2,346.1,30.2,346.4,29.9z"/>
	<path class="st0" d="M358.2,0h6.1l0.1,39.2h-6.2V0z M359.4,25.1c0.4,0.3,0.7,0.3,1,0.1c0.1-0.1,0.1-0.2,0-0.3
		C360.1,24.5,359.7,24.5,359.4,25.1z M362.6,37.3c0.1,0.2,0.2,0.4,0.2,0.7c0.1,0,0.1-0.1,0.2-0.1c0.1,0,0.1,0,0.1-0.1
		C363.3,37.5,363.1,37.3,362.6,37.3z"/>
	<path class="st0" d="M386.5,31.4c-0.2-0.3-0.4-0.5-0.5-0.7c-0.9-1.9-1.8-3.8-2.7-5.7c-0.9-1.9-1.8-3.8-2.7-5.7
		c-0.3-0.7-0.7-1.4-1-2.2c-0.3-0.7-0.7-1.4-1-2.2h-0.3v4.7v4.7v4.7c-0.2,0.1-0.4,0.2-0.5,0.3c-0.1,0.1-0.3,0.2-0.5,0.3
		c0.2,0.1,0.3,0.2,0.4,0.3c0.1,0.1,0.3,0.3,0.5,0.5v5.4c-0.2,0-0.3-0.1-0.4-0.1c-0.1,0-0.2,0-0.3-0.1c-0.2,0.5-0.1,0.9,0.3,1.1
		c0.5,0.3,0.7,0.7,0.4,1.2c0,0.1-0.1,0.2-0.1,0.3c0,0.1,0,0.2,0,0.4c0,0.2,0,0.3,0.1,0.5h-5.9v-39l6.2-0.1c2,4.2,3.7,7.8,5.2,10.9
		c1.5,3.1,2.7,5.7,3.7,7.8c1.1,2.4,2.1,4.5,3,6.2c0,0,0.1,0,0.1,0c0,0,0.1,0,0.1,0V0h5.9v28.2c-0.5,0.2-0.9,0.3-1,0.5
		c-0.1,0.2-0.2,0.6-0.2,1.1c0.1-0.1,0.2-0.1,0.3-0.1c0.1,0,0.2-0.1,0.3-0.1c0.1,0,0.3-0.2,0.6-0.5v10h-3.6c0,0,0-0.1,0-0.1
		c0,0,0,0,0-0.1c0-0.4,0-0.7,0.1-0.9c-0.2,0-0.4,0-0.6-0.1c-0.2,0-0.4,0-0.6,0.1c-0.3,0.1-0.6,0.2-0.8,0.4c-0.2,0.2-0.5,0.3-0.8,0.5
		c-0.3-0.5-0.6-1.1-0.8-1.7c-0.2-0.6-0.5-1.1-0.8-1.7c0.1-0.1,0.2-0.2,0.3-0.3c0.1-0.1,0.2-0.2,0.3-0.4c-0.2,0-0.3-0.1-0.5-0.1
		c-0.1,0-0.3,0-0.5-0.1c-0.2-0.5-0.5-1.1-0.7-1.7C387,32.6,386.8,32,386.5,31.4c0.1-0.1,0.2,0,0.4,0c0.1,0,0.2,0,0.3-0.1
		c0.3-0.2,0.5-0.6,0.6-1.2c0.1-0.6,0-1.1-0.1-1.3c-0.3-0.3-0.5-0.3-0.7,0c-0.2,0.3-0.4,0.7-0.4,1.1c0,0.3,0,0.5,0,0.8
		C386.5,30.8,386.5,31.1,386.5,31.4z M388.8,22.5c-0.2-0.1-0.3-0.2-0.4-0.2c-0.1-0.1-0.2-0.1-0.3-0.1c-0.1,0-0.2,0.1-0.2,0.2
		c-0.1,0.1-0.1,0.2-0.1,0.3c0,0.1,0.1,0.2,0.2,0.2c0.1,0.1,0.2,0.1,0.3,0.1c0.1,0,0.2,0,0.2-0.1C388.6,22.7,388.7,22.6,388.8,22.5z
		 M390.7,31.5c0.6-0.4,0.8-0.8,0.6-1.1c-0.1-0.1-0.3-0.1-0.5-0.1C390.5,30.6,390.4,31,390.7,31.5z M390.9,27c0.3,0,0.5,0,0.7-0.1
		c0.2-0.1,0.3-0.2,0.4-0.4c0.1-0.2,0.2-0.3,0.3-0.5c0.1-0.2,0.2-0.2,0.4-0.3c-0.1-0.2-0.1-0.3-0.1-0.5c0-0.1-0.1-0.2-0.1-0.3
		c-0.1-0.1-0.2-0.2-0.3-0.4c-0.1-0.2-0.2-0.2-0.3-0.2c-0.1,0-0.2,0-0.4,0.1c-0.2,0.1-0.3,0.2-0.3,0.3
		C390.7,25.4,390.6,26.2,390.9,27z M391.8,29.9c0.1-0.2,0.2-0.3,0.2-0.5c0.1-0.1,0.1-0.2,0.2-0.3c0-0.1,0-0.1-0.1-0.2
		c-0.1,0-0.2-0.1-0.2-0.2c-0.1,0.1-0.1,0.2-0.2,0.3c-0.1,0.1-0.1,0.2-0.1,0.3C391.5,29.3,391.6,29.5,391.8,29.9z M395.2,18.1
		c-0.3-0.3-0.5-0.4-0.6-0.4c-0.3,0.1-0.4,0.2-0.4,0.4c0,0.1,0,0.2,0.1,0.3c0.1,0.1,0.2,0.2,0.2,0.2c0.1,0,0.2-0.1,0.3-0.2
		C394.9,18.3,395.1,18.2,395.2,18.1z"/>
	<path class="st0" d="M404.4,0h6.1l0.1,39.2h-6.2V0z M405.6,25.1c0.4,0.3,0.7,0.3,1,0.1c0.1-0.1,0.1-0.2,0-0.3
		C406.3,24.5,405.9,24.5,405.6,25.1z M408.8,37.3c0.1,0.2,0.2,0.4,0.2,0.7c0.1,0,0.1-0.1,0.2-0.1c0.1,0,0.1,0,0.1-0.1
		C409.5,37.5,409.3,37.3,408.8,37.3z"/>
	<path class="st0" d="M424.3,11.3v27.9h-5.9V0h9.3c0.9,4.2,1.7,8.4,2.6,12.6c0.9,4.2,1.7,8.4,2.6,12.7c0.4-1.4,0.8-2.7,1.1-4.1
		c0.3-1.4,0.6-2.8,0.9-4.2c0.3-1.4,0.6-2.8,0.9-4.2c0.3-1.4,0.6-2.8,0.9-4.2c0.3-1.4,0.6-2.8,0.9-4.2c0.3-1.4,0.6-2.8,0.9-4.3h9.3
		c0,0.2,0.1,0.4,0.1,0.5c0,0.2,0,0.4,0,0.5v30.8c0,0.3,0,0.5,0,0.8c0,0.2-0.2,0.4-0.7,0.6c0.4,0.3,0.6,0.6,0.7,0.9
		c0,0.3,0,0.7,0,1.1v3.8h-1.6c-0.1-0.1-0.2-0.2-0.1-0.5c0-0.3-0.1-0.4-0.5-0.3c-0.3,0-0.5,0.1-0.6,0.3c-0.1,0.2-0.1,0.4-0.2,0.6h-3
		V11.4h-0.2c-0.9,4.6-1.8,9.3-2.7,13.9c-0.9,4.6-1.8,9.2-2.7,13.9H430l-5.5-27.9H424.3z M422.2,21c-0.3,0.2-0.4,0.5-0.2,0.7
		c0.1,0.1,0.2,0.1,0.3,0.1C422.5,21.6,422.5,21.3,422.2,21z M427.8,2.3c-0.3-0.3-0.4-0.5-0.5-0.5c-0.4-0.1-0.6,0-0.7,0.4
		c0,0.1,0,0.2,0,0.3c0.1,0.1,0.1,0.2,0.1,0.1c0.2,0,0.3-0.1,0.5-0.1C427.4,2.5,427.6,2.4,427.8,2.3z M432.3,32.9
		c-0.4-0.5-1-0.8-1.7-1s-1.3-0.1-2,0.2c0.7,0.1,1.3,0.2,1.9,0.5C431,32.9,431.6,33,432.3,32.9z M429.7,18.8c0.1,0.3,0.2,0.6,0.3,0.6
		c0.1,0.1,0.3,0.1,0.5,0c0,0,0.1-0.1,0.1-0.2c0-0.1,0-0.2,0.1-0.3c-0.2,0-0.3-0.1-0.4-0.1C430,18.9,429.9,18.8,429.7,18.8z
		 M431.6,38.8c0.2-0.3,0.2-0.5,0.2-0.5c-0.1-0.2-0.2-0.3-0.3-0.3c0,0-0.1,0-0.2,0.1c-0.1,0.1-0.1,0.1-0.1,0.2
		C431.3,38.3,431.4,38.5,431.6,38.8z M440.6,4.3c0.3-0.4,0.4-0.6,0.4-0.6c-0.1-0.2-0.2-0.2-0.3-0.2c-0.2,0-0.3,0.1-0.3,0.3
		c0,0.1,0,0.2,0.1,0.2C440.4,4,440.5,4.1,440.6,4.3z M443.9,29.9c0-0.5-0.2-0.6-0.6-0.5c0,0-0.1,0-0.1,0.1c0,0.1,0,0.2,0,0.2
		C443.4,30.2,443.6,30.2,443.9,29.9z"/>
	<path class="st0" d="M455.6,0h6.3c0,0.1,0,0.5,0,1.3c0,0.8,0,1.9,0,3.2s0,2.8,0,4.4c0,1.6,0,3.3,0,5c0,1.7,0,3.3,0,4.9
		c0,1.6,0,3,0,4.2c0,0.9,0,1.7,0.1,2.6c0,0.8,0.1,1.7,0.3,2.6c0.2,1,0.5,1.8,1.1,2.6c0.6,0.7,1.2,1.3,2,1.7c0.8,0.4,1.6,0.6,2.6,0.5
		c0.9,0,1.8-0.3,2.7-0.7c1.3-0.7,2.1-1.8,2.3-3.2c0.2-0.8,0.3-1.5,0.3-2.3c0.1-0.7,0.1-1.5,0.1-2.3c0-1.4,0.1-2.8,0.1-4.2
		c0-1.4,0-2.8,0-4.2V7.6V0.1l6.3-0.1v20.1c0,2.6,0,4.8-0.1,6.6c0,0.9-0.1,1.7-0.2,2.6c-0.1,0.9-0.3,1.7-0.5,2.6
		c-0.6,2.4-1.7,4.3-3.3,5.6c-1.6,1.3-3.6,2.1-6.1,2.3c-0.9,0.1-1.8,0.1-2.7,0.1c-0.9,0-1.8-0.1-2.7-0.3c-1.4-0.2-2.7-0.7-3.8-1.5
		c-1.1-0.8-2-1.7-2.8-3c-0.6-1-1.1-2-1.4-3.1c-0.3-1.1-0.5-2.2-0.5-3.3c-0.1-1.2-0.1-2.4-0.2-3.6c-0.1-1.2-0.1-2.4-0.1-3.6
		c0-1.1,0-2.5,0-3.9c0-1.5,0-3,0-4.6c0-1.6,0-3.1,0-4.6c0-1.5,0-2.9,0-4.1c0-1.2,0-2.2,0-2.9C455.6,0.5,455.6,0.1,455.6,0z
		 M460.4,35.7c0-0.2,0.1-0.3,0.2-0.5c0-0.1-0.1-0.2-0.2-0.2c0,0-0.1,0.1-0.1,0.1c-0.1,0-0.1,0.1-0.1,0.1
		C460.1,35.4,460.2,35.5,460.4,35.7z M460.5,13.9c0,0.3,0.1,0.6,0.2,0.7c0.2,0,0.3,0,0.3-0.1C461.2,14.3,461,14.1,460.5,13.9z
		 M465.4,36.1c0.5,0.3,0.8,0.3,1.1,0.1c0,0,0.1-0.1,0.1-0.2c0-0.1,0-0.2-0.1-0.2C466.1,35.5,465.7,35.6,465.4,36.1z"/>
	<path class="st0" d="M493.4,11.3v27.9h-5.9V0h9.3c0.9,4.2,1.7,8.4,2.6,12.6c0.9,4.2,1.7,8.4,2.6,12.7c0.4-1.4,0.8-2.7,1.1-4.1
		c0.3-1.4,0.6-2.8,0.9-4.2c0.3-1.4,0.6-2.8,0.9-4.2c0.3-1.4,0.5-2.8,0.9-4.2c0.3-1.4,0.6-2.8,0.9-4.2c0.3-1.4,0.6-2.8,0.9-4.3h9.3
		c0,0.2,0.1,0.4,0.1,0.5c0,0.2,0,0.4,0,0.5v30.8c0,0.3,0,0.5,0,0.8c0,0.2-0.2,0.4-0.7,0.6c0.4,0.3,0.6,0.6,0.7,0.9
		c0,0.3,0,0.7,0,1.1v3.8h-1.6c-0.1-0.1-0.2-0.2-0.1-0.5c0-0.3-0.1-0.4-0.5-0.3c-0.3,0-0.5,0.1-0.6,0.3c-0.1,0.2-0.1,0.4-0.2,0.6h-3
		V11.4h-0.2c-0.9,4.6-1.8,9.3-2.7,13.9c-0.9,4.6-1.8,9.2-2.7,13.9h-6.2l-5.5-27.9H493.4z M491.3,21c-0.3,0.2-0.4,0.5-0.2,0.7
		c0.1,0.1,0.2,0.1,0.3,0.1C491.6,21.6,491.6,21.3,491.3,21z M496.8,2.3c-0.3-0.3-0.4-0.5-0.5-0.5c-0.4-0.1-0.6,0-0.7,0.4
		c0,0.1,0,0.2,0,0.3c0.1,0.1,0.1,0.2,0.1,0.1c0.2,0,0.3-0.1,0.5-0.1C496.5,2.5,496.6,2.4,496.8,2.3z M501.3,32.9
		c-0.4-0.5-1-0.8-1.7-1c-0.7-0.2-1.3-0.1-2,0.2c0.7,0.1,1.3,0.2,1.9,0.5C500.1,32.9,500.7,33,501.3,32.9z M498.8,18.8
		c0.1,0.3,0.2,0.6,0.3,0.6c0.1,0.1,0.3,0.1,0.5,0c0,0,0.1-0.1,0.1-0.2c0-0.1,0-0.2,0.1-0.3c-0.2,0-0.3-0.1-0.4-0.1
		C499.1,18.9,499,18.8,498.8,18.8z M500.7,38.8c0.2-0.3,0.2-0.5,0.2-0.5c-0.1-0.2-0.2-0.3-0.3-0.3c0,0-0.1,0-0.2,0.1
		c-0.1,0.1-0.1,0.1-0.1,0.2C500.4,38.3,500.5,38.5,500.7,38.8z M509.7,4.3c0.3-0.4,0.4-0.6,0.4-0.6c-0.1-0.2-0.2-0.2-0.3-0.2
		c-0.2,0-0.3,0.1-0.3,0.3c0,0.1,0,0.2,0.1,0.2C509.5,4,509.6,4.1,509.7,4.3z M513,29.9c0-0.5-0.2-0.6-0.6-0.5c0,0-0.1,0-0.1,0.1
		c0,0.1,0,0.2,0,0.2C512.5,30.2,512.7,30.2,513,29.9z"/>
</g>
<g>
	<path class="st0" d="M14.8,38.2H8.6c0.1-0.6,0.1-1.1,0-1.6c-0.1-0.5,0-1.1,0.4-1.6v-0.3c-0.3-0.2-0.4-0.4-0.4-0.6
		c0-0.2,0.1-0.5,0.1-0.7v-25V6.9C7.9,6.9,7.1,6.8,6.4,6.9c-0.7,0-1.4,0-2.1,0H0V0.3h23.2l0.1,6.6h-8.5V38.2z M9.9,26.7
		c-0.1-0.1-0.2-0.1-0.3-0.1c0,0.1-0.1,0.1-0.1,0.2c0,0.1-0.1,0.1-0.1,0.2l0.2,0.2L9.9,26.7z M12.5,31.8c0.2-0.2,0.3-0.3,0.3-0.3
		c0,0,0-0.1-0.1-0.1s-0.1-0.1-0.1-0.1c0,0.1-0.1,0.1-0.1,0.1c0,0-0.1,0.1-0.1,0.1c0,0,0,0.1,0.1,0.1C12.4,31.6,12.5,31.7,12.5,31.8z
		 M14.1,33.5c-0.2-0.1-0.3-0.2-0.3-0.2c0,0-0.1,0.1-0.3,0.2c0.1,0.1,0.1,0.1,0.2,0.1c0,0,0.1,0.1,0.2,0.1
		C13.9,33.8,14,33.7,14.1,33.5z"/>
	<path class="st0" d="M30.1,0.3h6.1c0,0.8,0,1.6,0,2.4c0,0.8,0,1.6,0,2.5V10v5h11.2V0.3h6.2v27.9c-0.4,0.1-0.8,0.2-1.3,0.3
		c-0.5,0.1-0.8,0.4-1,0.9c0.2,0.1,0.3,0.1,0.4,0.2c0.1,0.1,0.2,0.1,0.4,0.1c0.1,0,0.3,0,0.5-0.1c0.2-0.1,0.5-0.1,0.9-0.2v8.8h-6.2
		c0-0.6,0-1.1,0-1.6c0-0.5,0-1.1,0-1.6c0-0.5,0-1,0-1.6c0-0.6,0-1.1,0-1.7v-3.2v-3.4v-3.2H36.2v16.3h-6.1c0.4-0.4,0.7-0.7,1-1
		c0.3-0.3,0.7-0.6,1-1h-2.1V0.3z M30.7,16c0.1-0.2,0.1-0.3,0.2-0.4c0.1-0.1,0.1-0.2,0.2-0.2c0-0.1,0-0.1-0.1-0.2
		C30.9,15,30.8,15,30.7,15c-0.1,0-0.1,0.1-0.2,0.2c-0.1,0.1-0.1,0.1-0.2,0.2c0,0.1,0,0.2,0.1,0.2C30.6,15.7,30.7,15.8,30.7,16z
		 M31.3,26.7c0.2-0.1,0.4-0.2,0.6-0.4c0.2-0.1,0.3-0.3,0.4-0.6c0-0.1,0-0.2,0-0.2c0-0.1-0.1-0.2-0.1-0.2c0,0-0.1,0-0.2,0
		c-0.1,0-0.2,0-0.3,0.1c-0.2,0.2-0.3,0.4-0.4,0.6C31.2,26.2,31.2,26.4,31.3,26.7z M33.9,16c-0.1-0.1-0.1-0.1-0.2-0.1
		c0,0.1-0.1,0.3-0.3,0.5c0.1,0,0.1,0,0.2,0.1C33.7,16.3,33.8,16.1,33.9,16z M36.9,20.8C36.9,20.7,36.8,20.7,36.9,20.8
		c-0.1-0.1-0.1-0.1-0.2-0.1c0,0-0.1,0-0.1-0.1c-0.1,0.1-0.1,0.1-0.1,0.2c0,0.1,0,0.1-0.1,0.2c0,0,0.1,0,0.1,0.1c0,0,0.1,0,0.1,0
		c0.1,0,0.1-0.1,0.1-0.1C36.8,20.9,36.8,20.8,36.9,20.8z M47.8,11.7c0.4,0.1,0.7,0.1,0.7,0c0.1-0.1,0-0.3,0-0.7L47.8,11.7z"/>
	<path class="st0" d="M71.3,38.3c-0.4-0.1-0.7-0.1-1-0.2c-0.3-0.1-0.5-0.1-0.8-0.2c-0.5-0.2-1-0.3-1.5-0.4c-0.5,0-1,0.2-1.5,0.7
		c-0.1-0.1-0.1-0.2-0.2-0.3c-0.1-0.1-0.1-0.2-0.2-0.2c-0.3-0.4-0.6-0.6-0.8-0.7c-0.2-0.1-0.6,0-1,0.3c-0.3,0.1-0.5,0.3-0.7,0.3
		c-0.2,0.1-0.5,0.1-0.8,0c-0.1,0-0.3,0.1-0.5,0.2c-0.3,0.2-0.5,0.3-0.7,0.4c-0.2,0.1-0.5,0-0.8,0c-0.1-0.3-0.1-0.6-0.1-1
		c0-0.4,0-0.8,0-1.2c0-0.4,0-0.8,0.1-1.2c0-0.4,0.1-0.6,0.1-0.8c0.2,0.1,0.4,0.1,0.5,0.2c0.2,0,0.3,0.1,0.5,0.2
		c0.9,0.3,1.6,0.1,2.2-0.6c0.2-0.3,0.4-0.5,0.6-0.7c0.1-0.1,0.3-0.2,0.6-0.3l-0.1-0.2c-0.4,0-0.8,0-1.2,0c-0.4,0-0.8,0-1.2,0.1
		c-0.2,0-0.3,0.1-0.5,0.2c-0.1,0.1-0.3,0.1-0.5,0.2c-0.1,0.1-0.3,0.1-0.4,0.2c-0.1,0.1-0.3,0.1-0.5,0.1c0,0-0.2-0.1-0.4-0.4
		c0.6-0.1,1.1-0.5,1.4-1c0.1-0.1,0.2-0.2,0.4-0.2c0.2,0,0.4-0.1,0.6-0.1h11.6H76c0.1,0,0.3,0,0.4,0c0.1,0,0.2,0.1,0.3,0.4
		c0,0,0.1,0.1,0.2,0.1h0.2c0.2-0.3,0.4-0.4,0.7-0.4c0.3,0,0.5,0,0.8,0h1.8v6.6H72c0.1-0.4,0.2-0.8,0.3-1.1c0.1-0.3,0.2-0.7,0.4-1.2
		c-0.2,0.1-0.3,0.2-0.5,0.2c-0.1,0.1-0.2,0.1-0.3,0.2c-0.1,0.1-0.3,0.2-0.4,0.4c-0.1,0.1-0.2,0.3-0.4,0.4c-0.2,0.1-0.3,0.3-0.3,0.4
		c0,0.1,0.1,0.2,0.4,0.3v0.2C71.2,38,71.2,38.2,71.3,38.3z M60.6,18.9v-2.5h19.8V23h-6.5h-6.7c-1.1,0-2.1,0-3.3,0
		c-1.1,0-2.2,0-3.3-0.1c0-0.2-0.1-0.4-0.1-0.6c0-0.2,0-0.4-0.1-0.6c0.5-0.5,0.9-1,1.3-1.6c-0.1,0-0.2-0.1-0.2-0.3s0-0.3-0.1-0.5
		c-0.1-0.2-0.1-0.3-0.3-0.4C61.2,18.8,61,18.8,60.6,18.9z M80.4,0.4v6.5H60.7V0.4L80.4,0.4z M67,36.4H68C67.6,36,67.3,36,67,36.4z
		 M69.7,18.7c0-0.1,0.1-0.1,0.1-0.2c0-0.1,0.1-0.1,0.1-0.2c-0.1-0.1-0.2-0.1-0.2-0.1c-0.1,0-0.1,0.1-0.1,0.1c0,0.1-0.1,0.1-0.1,0.2
		l0.1,0.1C69.5,18.7,69.6,18.7,69.7,18.7z M70.8,21c0.2-0.2,0.3-0.3,0.3-0.3c0-0.1-0.1-0.2-0.3-0.3c0,0-0.1,0-0.1,0.1l-0.1,0.1
		C70.7,20.6,70.7,20.8,70.8,21z M75.1,21.3c-0.4,0-0.6,0.1-0.7,0.1c-0.1,0.1-0.1,0.2-0.2,0.5C74.6,22,74.9,21.8,75.1,21.3z"/>
</g>
</svg>
